<?xml version="1.0" standalone="no"?>
<!DOCTYPE svg PUBLIC "-//W3C//DTD SVG 20010904//EN"
 "http://www.w3.org/TR/2001/REC-SVG-20010904/DTD/svg10.dtd">
<svg version="1.0" xmlns="http://www.w3.org/2000/svg"
 width="48.000000pt" height="48.000000pt" viewBox="0 0 48.000000 48.000000"
 preserveAspectRatio="xMidYMid meet">

<g transform="translate(0.000000,48.000000) scale(0.100000,-0.100000)"
fill="#000000" stroke="none">
<path d="M25 455 c-25 -24 -25 -26 -25 -215 0 -257 -17 -240 240 -240 189 0
191 0 215 25 25 24 25 26 25 215 0 257 17 240 -240 240 -189 0 -191 0 -215
-25z m193 -91 c20 -14 24 -14 44 0 54 38 130 0 130 -65 0 -63 -49 -136 -124
-184 -27 -16 -29 -16 -55 0 -76 48 -125 121 -125 184 0 65 76 103 130 65z"/>
</g>
</svg>
